<?xml version="1.0" standalone="no"?>
<!DOCTYPE svg PUBLIC "-//W3C//DTD SVG 20010904//EN"
 "http://www.w3.org/TR/2001/REC-SVG-20010904/DTD/svg10.dtd">
<svg version="1.0" xmlns="http://www.w3.org/2000/svg"
 width="884.000000pt" height="354.000000pt" viewBox="0 0 884.000000 354.000000"
 preserveAspectRatio="xMidYMid meet">

<g transform="translate(0.000000,354.000000) scale(0.100000,-0.100000)"
fill="#000000" stroke="none">
<path d="M0 3154 l0 -385 51 63 c94 118 292 307 414 396 16 12 148 97 170 110
105 61 278 138 400 177 l70 23 -552 1 -553 1 0 -386z"/>
<path d="M2505 3523 c294 -86 419 -135 743 -294 145 -71 291 -140 325 -155 34
-14 76 -32 92 -39 238 -104 381 -136 600 -136 193 1 356 34 570 116 39 15 95
36 125 47 30 11 82 32 115 47 33 16 71 32 85 36 14 4 90 34 169 67 80 33 176
70 215 83 102 34 218 74 241 84 53 22 288 91 450 130 l120 30 -1950 -1 c-1729
0 -1944 -2 -1900 -15z"/>
<path d="M7565 3524 c356 -106 736 -354 977 -638 94 -110 96 -114 143 -179 25
-34 49 -67 55 -74 14 -17 86 -136 93 -153 3 -8 6 227 6 523 l1 537 -662 -1
c-603 0 -658 -2 -613 -15z"/>
<path d="M990 2865 c-10 -12 -10 -21 -2 -40 7 -14 16 -25 22 -25 18 0 11 -114
-11 -184 -22 -69 -52 -102 -81 -91 -12 5 -57 65 -115 154 -11 16 -8 -17 6 -94
10 -49 24 -139 31 -198 l14 -109 31 6 c110 22 290 46 342 46 68 0 170 -13 276
-37 38 -8 71 -13 73 -10 2 2 11 67 20 143 8 76 22 162 30 191 22 80 17 81 -35
7 -104 -149 -189 -184 -278 -114 -26 20 -73 85 -73 100 0 6 -4 10 -10 10 -14
0 -13 53 1 67 24 24 -12 70 -46 57 -21 -8 -19 -61 2 -73 16 -8 16 -13 -6 -58
-12 -27 -38 -66 -57 -86 -20 -20 -31 -37 -27 -37 14 0 73 61 89 92 14 27 44
30 44 4 0 -7 22 -37 48 -67 47 -52 56 -79 26 -79 -9 0 -12 -5 -9 -11 10 -15
94 -4 177 23 37 12 69 20 72 18 2 -3 2 -36 -1 -73 l-6 -68 -66 8 c-107 13
-459 10 -514 -5 -65 -17 -73 -9 -73 75 l1 68 30 3 c100 8 114 13 165 58 27 25
50 49 50 54 0 4 -14 24 -30 45 -34 43 -70 118 -70 146 0 11 6 28 12 39 24 37
-24 79 -52 45z"/>
<path d="M1372 2868 c-28 -28 3 -83 33 -58 20 16 19 56 -1 64 -20 8 -18 8 -32
-6z"/>
<path d="M732 2788 c-30 -30 11 -85 44 -57 25 21 11 69 -21 69 -6 0 -16 -5
-23 -12z"/>
<path d="M1650 2785 c-7 -8 -9 -26 -5 -44 6 -30 7 -31 36 -16 30 16 38 42 17
63 -16 16 -33 15 -48 -3z"/>
<path d="M1347 2698 c-14 -30 -33 -61 -42 -68 -23 -19 -18 -40 21 -76 29 -28
43 -34 80 -34 24 0 44 3 44 6 0 3 -8 18 -18 32 -26 37 -42 88 -42 131 0 65
-15 68 -43 9z"/>
<path d="M7620 2668 c-25 -27 -27 -103 -4 -136 15 -21 15 -25 0 -41 -9 -10
-16 -32 -16 -50 0 -39 41 -83 92 -97 29 -8 34 -15 41 -54 4 -25 6 -121 3 -215
-4 -147 -7 -171 -22 -182 -13 -9 -62 -13 -175 -13 -189 0 -184 -3 -184 113 l0
81 80 0 c140 1 175 39 175 186 0 92 -10 122 -51 152 -23 18 -44 20 -172 20
-237 0 -240 -5 -235 -346 l3 -228 37 -34 38 -34 311 0 311 0 33 33 c43 43 47
73 43 327 -3 232 -7 246 -79 274 -51 21 -50 49 1 56 31 4 35 8 35 35 0 27 -4
31 -35 35 -27 4 -35 10 -35 25 0 18 8 20 83 23 l82 3 0 44 0 45 -170 0 c-161
0 -170 -1 -190 -22z m-185 -418 l0 -75 -40 0 -40 0 -3 64 c-4 85 0 93 45 89
l38 -3 0 -75z"/>
<path d="M3595 2661 c-110 -27 -155 -94 -155 -228 1 -126 28 -170 163 -260 37
-25 83 -60 102 -78 33 -30 35 -36 35 -97 0 -69 -10 -88 -47 -88 -32 0 -43 28
-43 110 l0 71 -102 -3 -103 -3 3 -70 c5 -100 19 -145 58 -181 116 -110 387
-78 433 51 18 50 18 173 2 242 -15 61 -66 114 -180 187 -103 67 -111 76 -111
141 0 44 4 56 20 65 14 8 26 8 40 0 16 -9 20 -21 20 -65 l0 -55 106 0 106 0
-7 73 c-8 82 -27 123 -73 154 -56 37 -185 54 -267 34z"/>
<path d="M2660 2220 l0 -430 100 0 100 0 0 257 c0 141 3 254 6 250 6 -6 20
-96 66 -419 l12 -88 67 0 67 0 11 63 c6 34 20 136 31 227 12 91 24 176 28 190
4 14 9 -87 12 -225 l5 -250 98 -3 97 -3 0 431 0 430 -144 0 -144 0 -6 -27 c-7
-37 -23 -162 -31 -238 -3 -33 -8 -73 -12 -90 -5 -29 -6 -29 -14 -7 -5 13 -18
87 -29 165 -11 78 -23 154 -26 170 l-6 27 -144 0 -144 0 0 -430z"/>
<path d="M4035 2637 c-3 -6 -4 -199 -3 -427 l3 -415 108 -3 107 -3 1 38 c1 21
2 97 3 168 3 188 3 185 25 185 46 0 51 -20 51 -211 l0 -179 105 0 105 0 0 173
c0 168 -1 173 -25 210 -14 20 -37 40 -50 43 -28 7 -34 34 -7 34 48 1 82 69 82
165 0 122 -44 201 -125 224 -58 16 -374 15 -380 -2z m279 -143 c19 -18 22
-133 6 -165 -12 -21 -55 -26 -62 -6 -4 10 -3 110 1 175 1 17 37 15 55 -4z"/>
<path d="M6403 2608 c-15 -19 -23 -99 -12 -120 8 -15 23 -18 95 -18 80 0 85 1
94 24 5 13 6 46 2 72 l-7 49 -81 3 c-57 2 -84 -1 -91 -10z"/>
<path d="M4767 2603 c-6 -6 -10 -80 -4 -85 1 -1 121 -5 267 -8 l265 -5 0 -35
0 -35 -230 -5 c-256 -6 -264 -7 -290 -73 -21 -54 -22 -438 0 -490 28 -68 51
-77 201 -77 123 0 135 2 146 20 7 11 18 20 24 20 6 0 19 -9 29 -20 16 -18 31
-20 146 -20 128 0 129 0 161 29 33 29 33 30 38 143 10 196 -2 210 -166 206
l-109 -3 -3 -39 c-4 -42 8 -56 45 -56 31 0 43 -28 43 -99 0 -80 -5 -91 -45
-91 -40 0 -48 10 -50 62 -3 72 3 68 -90 68 l-84 0 -3 -62 -3 -63 -40 0 -40 0
-3 214 c-2 149 1 218 9 227 15 18 314 20 325 2 4 -6 10 -25 13 -42 l7 -31 96
-3 96 -3 5 26 c7 39 -8 94 -34 121 -21 22 -21 25 -5 48 18 28 21 88 6 117 -25
46 -49 49 -393 49 -178 0 -327 -3 -330 -7z"/>
<path d="M5702 2429 c-105 -13 -112 -32 -112 -314 0 -337 -11 -325 295 -325
305 0 295 -11 295 320 0 326 5 319 -253 323 -95 1 -196 -1 -225 -4z m298 -108
c6 -12 10 -99 10 -212 0 -239 5 -229 -126 -229 -128 0 -124 -7 -124 230 0 238
-5 230 130 230 88 0 100 -2 110 -19z"/>
<path d="M6354 2432 c-40 -7 -74 -25 -91 -51 -16 -23 -18 -54 -21 -247 -4
-253 2 -291 51 -326 30 -22 41 -23 184 -23 142 0 153 1 175 22 l23 22 30 -26
c29 -26 30 -26 163 -19 226 11 224 9 220 348 l-3 240 -35 29 c-33 28 -38 29
-143 29 l-108 0 3 -42 c3 -39 5 -43 33 -46 17 -2 36 -8 43 -14 17 -15 17 -419
0 -436 -15 -15 -72 -16 -99 -2 -15 9 -19 22 -19 65 l0 55 -84 0 -83 0 -5 -52
c-6 -60 -24 -78 -80 -78 -55 0 -70 28 -66 122 l3 73 80 -3 c141 -4 185 39 185
180 0 151 -33 179 -214 181 -67 1 -131 1 -142 -1z m173 -109 c9 -24 10 -130 1
-139 -9 -8 -67 -8 -75 0 -12 11 -14 102 -4 129 8 21 17 27 41 27 20 0 33 -6
37 -17z"/>
<path d="M828 2213 c-73 -46 -105 -194 -87 -408 14 -176 46 -308 127 -530 52
-140 105 -230 150 -254 58 -31 76 26 61 194 -14 151 -8 269 15 314 12 23 14
32 5 29 -7 -2 -22 -22 -33 -44 -18 -34 -21 -60 -24 -214 -2 -96 -7 -179 -12
-183 -29 -30 -75 42 -114 178 -10 33 -22 71 -26 85 -51 146 -95 496 -79 620
22 160 78 188 216 106 127 -77 182 -100 253 -104 36 -2 76 1 90 7 23 9 21 10
-17 10 -61 1 -139 34 -240 100 -172 113 -225 131 -285 94z"/>
<path d="M1415 2175 c-94 -57 -118 -67 -157 -63 -34 3 -37 2 -22 -9 24 -17 98
-17 137 1 50 22 98 36 124 36 66 0 118 -63 135 -165 26 -160 -61 -554 -170
-773 -66 -134 -109 -116 -126 53 -4 33 -12 76 -18 95 -45 145 -64 172 -116
168 -38 -3 -58 -28 -23 -28 11 0 32 -10 46 -22 30 -27 59 -130 70 -248 7 -79
30 -176 47 -197 19 -24 59 -14 93 21 27 29 109 183 135 251 48 132 81 253 101
375 15 87 15 335 1 384 -37 128 -154 183 -257 121z"/>
<path d="M3357 1567 c-2 -7 -5 -161 -6 -342 -1 -312 0 -332 18 -362 43 -70
188 -70 234 0 15 23 17 56 17 240 0 202 -1 216 -21 241 -19 24 -26 26 -95 26
-67 0 -75 2 -72 18 3 14 16 17 81 20 74 3 77 4 77 27 0 23 -3 24 -77 27 -70 3
-78 5 -78 23 0 18 8 20 93 23 l92 3 0 34 0 35 -129 0 c-95 0 -130 -3 -134 -13z
m181 -289 c8 -8 12 -62 12 -178 0 -153 -2 -168 -20 -188 -35 -37 -81 -28 -99
21 -14 36 -14 312 -1 338 8 14 21 19 53 19 24 0 48 -5 55 -12z"/>
<path d="M5150 1561 c-13 -24 -13 -111 0 -131 6 -10 32 -17 72 -20 l63 -5 -3
-36 c-2 -22 5 -51 17 -75 19 -36 20 -55 18 -212 -2 -141 -5 -175 -17 -182 -24
-16 -50 24 -50 77 0 44 0 44 -32 41 -32 -3 -33 -5 -36 -53 -3 -55 -18 -80 -42
-65 -11 7 -16 32 -18 90 l-4 80 34 0 c61 0 72 24 73 150 0 94 -3 111 -20 130
-17 19 -28 21 -74 18 -37 -4 -58 -11 -67 -23 -11 -15 -14 -71 -14 -248 l0
-229 32 -30 c27 -25 38 -29 68 -24 19 3 43 15 52 26 l17 20 25 -25 c14 -14 37
-25 51 -25 40 0 82 48 90 101 10 65 2 411 -10 429 -5 8 -10 58 -10 111 0 127
-2 129 -116 129 -77 0 -90 -2 -99 -19z m135 -66 c0 -15 -8 -21 -32 -23 -27 -3
-33 0 -33 16 0 26 10 33 40 30 17 -2 25 -9 25 -23z m-125 -276 c0 -52 -2 -60
-17 -57 -14 2 -19 15 -21 51 -3 47 11 82 29 71 5 -3 9 -32 9 -65z"/>
<path d="M4344 1516 c-3 -8 -4 -25 -2 -38 2 -19 11 -24 43 -28 38 -5 40 -7 40
-40 l0 -35 -105 -5 -105 -5 -3 -37 -3 -37 108 -3 108 -3 3 -184 c2 -121 -1
-188 -8 -195 -20 -20 -30 17 -30 122 0 89 -3 105 -20 122 -27 27 -99 27 -131
1 -22 -18 -24 -27 -27 -138 -2 -104 0 -122 18 -151 27 -44 65 -58 107 -38 28
13 36 13 72 -1 28 -11 41 -22 41 -35 0 -36 19 -58 51 -58 38 0 47 22 26 66
-13 27 -16 73 -17 251 0 120 -1 224 0 231 0 9 15 12 53 10 l52 -3 3 -37 c3
-33 0 -38 -18 -38 -60 0 -69 -24 -73 -195 -4 -120 7 -163 45 -189 29 -20 48
-20 74 2 37 31 44 75 44 272 0 256 -6 270 -119 270 -60 0 -61 1 -61 28 0 40
-18 99 -36 117 -21 20 -122 21 -130 1z m276 -490 c0 -97 -10 -137 -24 -100 -8
21 -8 189 1 197 18 19 23 -2 23 -97z m-302 -26 c3 -84 -9 -121 -28 -90 -11 17
-13 139 -4 165 15 38 29 5 32 -75z"/>
<path d="M5074 1506 c-3 -7 -4 -33 -2 -57 2 -36 7 -44 23 -44 17 0 20 8 23 58
3 52 1 57 -18 57 -11 0 -23 -6 -26 -14z"/>
<path d="M2473 1502 c-6 -4 -13 -34 -15 -67 -3 -60 -3 -60 -35 -63 -30 -3 -33
-6 -33 -37 0 -31 3 -35 33 -40 18 -4 49 -3 68 2 31 8 34 13 37 49 5 73 10 82
45 86 29 3 32 6 32 38 l0 35 -60 3 c-33 1 -65 -1 -72 -6z"/>
<path d="M3112 1497 c-6 -7 -12 -37 -14 -67 -3 -54 -4 -55 -36 -58 -32 -3 -33
-5 -30 -40 3 -36 4 -37 50 -40 71 -5 88 9 88 67 0 52 10 67 50 73 21 2 26 9
28 41 l3 37 -64 0 c-40 0 -69 -5 -75 -13z"/>
<path d="M3777 1503 c-4 -3 -7 -19 -7 -34 0 -30 25 -45 60 -34 35 11 60 -3 60
-36 0 -19 -5 -29 -15 -29 -10 0 -15 -10 -15 -29 0 -32 24 -42 70 -31 24 6 25
10 28 89 2 53 -1 88 -9 97 -12 15 -159 21 -172 7z"/>
<path d="M5683 1502 c-6 -4 -13 -34 -15 -67 -2 -49 -6 -60 -22 -63 -24 -5 -36
14 -36 56 0 30 -2 32 -36 32 l-36 0 6 -42 c4 -24 6 -52 6 -63 -7 -154 -10
-427 -5 -452 7 -39 50 -93 75 -93 9 0 29 9 44 21 l26 20 26 -20 c33 -26 52
-26 84 -1 l25 19 3 243 c3 239 3 243 -19 260 -11 10 -32 18 -46 18 -21 0 -24
4 -21 28 2 22 9 28 38 32 32 5 35 8 35 40 l0 35 -60 3 c-33 1 -65 -1 -72 -6z
m72 -407 c0 -162 -2 -190 -15 -190 -12 0 -16 16 -18 73 l-3 73 -32 -3 -32 -3
-3 -72 c-2 -53 -7 -73 -16 -73 -8 0 -17 7 -20 16 -10 26 -7 321 4 349 9 25 13
26 72 23 l63 -3 0 -190z"/>
<path d="M6303 1500 c-20 -8 -23 -17 -23 -69 l0 -60 -47 -3 c-48 -3 -48 -3
-48 -38 l0 -35 85 -5 c78 -5 85 -7 88 -27 2 -16 -3 -22 -20 -25 -15 -2 -26
-13 -32 -33 -5 -16 -11 -37 -14 -45 -3 -9 -8 -1 -14 20 -14 51 -25 60 -74 60
-68 0 -74 -15 -74 -197 0 -91 5 -162 11 -177 32 -69 237 -75 290 -7 21 25 21
34 17 246 -5 243 -10 265 -58 265 -19 0 -30 5 -30 14 0 32 13 46 42 46 28 0
29 2 26 38 l-3 37 -50 2 c-27 1 -60 -2 -72 -7z m77 -390 c0 -68 -14 -80 -24
-20 -6 35 5 80 19 80 3 0 5 -27 5 -60z m-152 -2 c-4 -74 -28 -77 -28 -4 0 44
3 56 16 56 12 0 14 -10 12 -52z m96 -130 c6 -4 21 -8 34 -8 29 0 28 -24 -3
-55 -31 -32 -91 -34 -129 -4 -36 28 -35 59 2 59 35 0 52 16 52 50 l1 25 16
-30 c9 -16 21 -33 27 -37z"/>
<path d="M6612 1474 l3 -37 94 -3 c95 -3 114 -10 108 -44 -2 -11 -21 -16 -77
-20 l-75 -5 0 -35 0 -35 72 -3 c60 -2 75 -6 83 -22 16 -30 12 -356 -5 -370
-19 -16 -25 9 -25 113 0 127 -9 141 -87 145 -86 4 -93 -7 -93 -158 0 -96 3
-120 19 -147 25 -40 71 -52 108 -28 24 16 27 16 58 -1 31 -16 35 -17 59 -1 41
27 48 76 42 305 -3 114 -5 237 -5 274 0 108 1 108 -152 108 l-130 0 3 -36z
m102 -482 c-1 -45 -4 -85 -7 -88 -17 -18 -27 16 -27 92 0 76 2 85 18 82 15 -3
17 -15 16 -86z"/>
<path d="M7075 1498 c-2 -7 -6 -38 -7 -68 -2 -44 -7 -55 -22 -58 -24 -5 -36
14 -36 56 0 30 -2 32 -35 32 -32 0 -35 -2 -35 -31 0 -17 4 -38 9 -47 6 -11 4
-37 -5 -72 -9 -36 -14 -109 -14 -213 0 -178 14 -246 58 -275 23 -15 27 -15 61
4 36 19 38 19 66 2 41 -24 52 -23 86 11 l29 29 0 222 c0 254 -6 279 -67 280
-15 0 -23 6 -23 18 0 28 13 40 45 44 27 3 30 7 30 38 l0 35 -68 3 c-48 2 -69
-1 -72 -10z m74 -222 c8 -9 11 -69 9 -192 -3 -151 -5 -179 -18 -179 -11 0 -16
17 -20 70 l-5 70 -30 0 -30 0 -3 -72 c-2 -53 -7 -73 -16 -73 -22 0 -27 41 -25
198 2 189 3 192 72 192 34 0 59 -5 66 -14z"/>
<path d="M4727 1423 c-4 -3 -7 -46 -7 -94 0 -101 -1 -99 96 -99 61 0 65 1 75
28 6 15 8 42 5 59 -5 37 8 51 29 33 12 -10 15 -50 15 -214 0 -227 -2 -234 -66
-243 -34 -4 -45 -1 -63 18 -11 12 -21 31 -21 41 0 15 8 18 45 18 40 0 47 3 56
28 12 30 9 176 -4 188 -14 14 -136 17 -152 4 -12 -10 -15 -42 -15 -164 0 -138
2 -154 20 -174 22 -23 78 -42 126 -42 42 0 114 26 130 48 10 13 13 77 14 279
0 144 -3 268 -6 277 -5 14 -27 16 -138 16 -73 0 -136 -3 -139 -7z m101 -96 c3
-22 -1 -27 -17 -27 -15 0 -21 6 -21 23 0 46 33 49 38 4z m0 -236 c5 -32 -5
-52 -23 -45 -15 6 -21 55 -8 68 12 12 28 0 31 -23z"/>
<path d="M2577 1363 c-13 -13 -7 -67 11 -86 15 -16 17 -43 19 -185 2 -151 -6
-216 -25 -197 -4 3 -9 55 -12 114 -3 69 -10 114 -19 125 -10 12 -31 16 -77 16
-60 0 -65 -2 -74 -26 -14 -36 -13 -301 1 -310 6 -3 22 -1 35 7 23 12 24 16 24
130 0 73 4 120 11 124 18 12 22 -3 25 -85 3 -107 11 -136 41 -160 33 -26 63
-25 97 1 l26 20 26 -20 c33 -26 75 -27 97 -3 28 30 36 102 34 282 l-2 175 49
3 c55 4 66 -5 66 -55 0 -30 -3 -33 -30 -33 -52 0 -62 -31 -61 -176 1 -140 4
-159 34 -191 26 -29 62 -29 91 0 20 20 25 38 30 113 4 49 5 156 2 237 -5 195
2 187 -168 187 l-128 0 0 -33 c0 -21 7 -36 20 -45 19 -11 20 -23 20 -185 0
-132 -3 -178 -14 -192 -12 -16 -16 -17 -30 -6 -14 11 -16 40 -16 190 0 186 -9
244 -40 261 -21 11 -53 13 -63 3z m353 -349 c0 -86 -3 -104 -15 -104 -12 0
-15 18 -15 103 0 57 3 107 6 110 17 17 24 -13 24 -109z"/>
<path d="M3216 1354 c-10 -25 -7 -46 8 -63 17 -19 18 -35 17 -233 -1 -127 -4
-158 -15 -158 -10 0 -14 26 -18 114 -3 74 -9 120 -17 130 -10 12 -31 16 -77
16 -61 0 -65 -1 -75 -27 -6 -16 -9 -81 -7 -151 3 -121 4 -124 31 -148 33 -28
58 -30 93 -8 23 16 27 16 58 -1 32 -17 36 -18 60 -2 40 27 47 77 44 304 -3
201 -3 205 -27 224 -28 23 -67 25 -75 3z m-86 -364 c0 -73 -3 -90 -15 -90 -12
0 -15 17 -15 90 0 73 3 90 15 90 12 0 15 -17 15 -90z"/>
<path d="M3988 1353 c-3 -37 4 -66 18 -80 21 -22 21 -373 -1 -373 -12 0 -15
16 -15 85 0 55 -6 99 -16 125 l-17 41 -66 -3 c-87 -4 -91 -12 -91 -184 0 -144
8 -167 49 -144 19 10 21 20 21 98 0 106 9 164 24 159 6 -2 12 -32 13 -68 5
-114 13 -150 40 -175 29 -27 50 -30 87 -13 49 23 57 59 56 286 0 187 -1 210
-18 233 -24 32 -81 41 -84 13z"/>
<path d="M5904 1362 c-28 -18 -33 -56 -35 -248 -1 -224 6 -261 60 -288 62 -32
127 -10 156 54 14 30 16 68 13 242 -4 251 -2 248 -112 248 -39 0 -76 -4 -82
-8z m124 -261 c2 -127 -1 -188 -9 -197 -16 -20 -46 -17 -69 6 -18 18 -20 33
-20 184 0 90 3 172 6 181 5 12 17 15 48 13 l41 -3 3 -184z"/>
<path d="M7457 1343 c-9 -47 -1 -52 86 -55 74 -3 82 -5 82 -23 0 -19 -8 -20
-112 -23 -130 -3 -129 -2 -140 -102 l-6 -60 42 0 41 0 0 -84 c0 -133 23 -170
112 -182 64 -8 119 13 141 56 17 35 18 114 5 365 l-3 50 55 3 c60 3 80 -11 80
-55 0 -19 -5 -23 -28 -23 -17 0 -37 -9 -48 -21 -17 -19 -19 -38 -19 -168 0
-122 3 -151 17 -173 22 -34 54 -44 85 -27 45 24 53 64 53 280 0 192 -7 244
-33 261 -7 4 -100 8 -208 8 l-197 0 -5 -27z m73 -184 c-14 -11 -35 -29 -48
-40 -30 -25 -32 -24 -32 14 0 44 4 47 59 47 l46 -1 -25 -20z m116 -44 c3 -19
4 -71 2 -116 -3 -70 -6 -83 -27 -100 -30 -24 -46 -24 -71 1 -16 16 -20 33 -20
96 l0 76 42 39 c23 21 48 39 55 39 6 0 15 -16 19 -35z m192 -84 c2 -64 -1 -98
-10 -108 -11 -14 -14 -11 -20 18 -3 19 -5 65 -3 104 4 91 3 87 18 83 8 -3 13
-34 15 -97z"/>
<path d="M7951 1344 c-20 -25 -21 -39 -21 -233 0 -185 2 -209 19 -237 37 -61
162 -82 228 -39 50 33 54 59 51 286 -3 209 -3 211 -27 230 -52 42 -94 -7 -56
-65 14 -21 16 -50 13 -190 -3 -190 -8 -201 -79 -201 -61 0 -81 29 -77 114 l3
66 35 2 c19 2 40 10 47 19 29 40 28 205 -3 252 -12 18 -24 22 -64 22 -41 0
-52 -4 -69 -26z m89 -123 c0 -63 -6 -77 -27 -60 -17 15 -18 116 0 122 22 8 27
-3 27 -62z"/>
<path d="M530 1085 c-25 -29 -45 -59 -45 -66 0 -30 25 -16 61 33 45 61 55 48
24 -31 -33 -86 -25 -92 45 -31 58 50 73 51 40 3 -35 -53 -47 -85 -37 -95 9 -9
25 12 71 96 17 29 19 41 10 52 -17 20 -26 18 -70 -17 -44 -34 -46 -32 -23 34
13 38 14 51 4 62 -20 24 -32 17 -80 -40z"/>
<path d="M4110 1096 c0 -8 5 -18 10 -21 13 -8 14 -432 0 -440 -11 -7 -19 22
-22 85 l-3 45 -54 3 c-66 4 -71 -2 -71 -85 0 -50 4 -67 20 -83 21 -21 51 -24
85 -11 11 5 28 4 39 -1 12 -7 26 -6 42 1 l24 11 -2 252 -3 253 -32 3 c-24 2
-33 -1 -33 -12z m-62 -414 c2 -33 0 -42 -12 -42 -12 0 -16 11 -16 46 0 59 24
55 28 -4z"/>
<path d="M1776 1082 c-6 -10 76 -141 89 -142 6 0 29 18 50 40 21 22 34 40 29
40 -6 0 -21 -11 -34 -25 -22 -23 -25 -24 -42 -8 -10 9 -31 36 -46 60 -27 43
-36 50 -46 35z"/>
<path d="M7267 1023 c-4 -3 -7 -47 -7 -97 1 -79 4 -96 25 -131 21 -34 25 -52
25 -127 0 -108 -14 -129 -77 -112 -17 5 -23 14 -23 35 0 16 6 30 13 30 6 1 18
2 25 3 20 2 32 28 32 73 0 66 -6 73 -61 73 -44 0 -51 -3 -60 -27 -5 -14 -8
-32 -5 -40 8 -20 34 -16 46 7 16 31 30 24 30 -15 0 -32 -2 -35 -30 -35 -37 0
-50 -22 -46 -79 5 -62 24 -76 102 -76 94 0 104 15 104 146 0 86 -3 106 -25
149 -33 66 -36 166 -5 193 12 10 18 22 15 27 -7 11 -68 14 -78 3z"/>
<path d="M1682 1007 c-8 -9 -8 -25 -3 -48 5 -19 12 -55 16 -81 8 -59 35 -68
35 -13 0 29 4 36 25 41 14 3 32 1 40 -6 8 -6 19 -9 26 -5 12 8 -97 125 -117
125 -6 0 -16 -6 -22 -13z m65 -81 c-9 -24 -26 -19 -37 10 -19 49 -13 61 16 32
17 -16 24 -32 21 -42z"/>
<path d="M734 974 c-5 -17 0 -39 15 -66 28 -54 28 -80 -1 -76 -17 2 -24 12
-28 33 -6 33 -33 42 -38 13 -6 -30 43 -70 81 -66 41 4 47 34 18 84 -23 38 -27
69 -11 79 15 9 40 -14 40 -36 0 -11 5 -19 10 -19 18 0 10 36 -13 58 -32 31
-65 29 -73 -4z"/>
<path d="M1595 961 c-3 -5 -19 -12 -35 -16 -33 -7 -41 -25 -11 -25 24 0 34
-14 56 -77 11 -30 25 -53 33 -53 8 0 12 6 9 13 -51 136 -52 139 -32 153 16 12
16 14 3 14 -9 0 -19 -4 -23 -9z"/>
<path d="M879 912 c-54 -140 -55 -145 -33 -140 10 2 20 13 22 25 5 36 26 45
50 23 16 -15 20 -27 15 -55 -4 -28 -2 -35 11 -35 15 0 22 26 18 73 -1 10 4 28
12 40 20 31 7 55 -42 77 l-43 19 -10 -27z m79 -37 c5 -25 -13 -38 -42 -31 -27
7 -35 33 -15 53 15 15 53 1 57 -22z"/>
<path d="M1476 912 c-3 -5 1 -32 9 -58 24 -81 15 -87 -30 -19 -28 42 -52 61
-62 51 -10 -9 21 -176 32 -176 21 0 23 11 9 58 -23 74 -13 82 29 24 34 -47 54
-61 69 -46 7 6 -30 156 -42 167 -4 5 -10 4 -14 -1z"/>
<path d="M1293 873 l-33 -4 0 -90 0 -89 33 0 c40 0 77 10 77 20 0 4 -17 7 -37
6 -36 -1 -38 1 -41 32 -3 30 -1 32 27 32 17 0 31 5 31 11 0 6 -7 8 -16 5 -25
-10 -54 12 -50 37 2 15 11 23 29 25 15 2 27 8 27 13 0 5 -3 8 -7 7 -5 0 -23
-3 -40 -5z"/>
<path d="M1094 795 c-5 -41 -6 -82 -1 -90 9 -17 69 -20 98 -5 16 9 19 22 19
78 0 40 -5 73 -12 80 -7 7 -31 12 -53 12 l-42 0 -9 -75z m81 48 c14 -13 16
-28 12 -65 -8 -60 -12 -68 -43 -68 -23 0 -24 3 -24 69 0 65 5 77 32 80 4 1 14
-7 23 -16z"/>
<path d="M6680 771 l-35 -6 -3 -87 -3 -88 146 0 145 0 0 25 c0 23 -4 24 -62
27 l-63 3 -3 58 c-2 34 -8 60 -15 62 -29 9 -75 11 -107 6z m68 -83 c-2 -17
-10 -23 -28 -23 -18 0 -26 6 -28 23 -3 19 1 22 28 22 27 0 31 -3 28 -22z"/>
<path d="M6547 452 c-10 -10 -17 -28 -17 -40 0 -26 -8 -27 -34 -7 -42 32 -147
9 -161 -35 -11 -35 4 -59 46 -71 27 -9 36 -16 29 -23 -26 -26 -4 -76 35 -76
20 -1 20 -1 1 -15 -22 -17 -73 -19 -96 -5 -13 8 -12 12 8 25 24 17 29 54 10
73 -19 19 -56 14 -80 -10 -12 -12 -23 -18 -25 -12 -12 34 -32 60 -53 71 -39
19 -49 -2 -17 -35 64 -66 -3 -147 -88 -106 -41 19 -41 37 -1 42 35 4 54 42 38
77 -9 19 -19 25 -45 25 -57 0 -86 -51 -67 -120 20 -73 108 -103 179 -59 18 11
35 29 38 40 7 26 17 24 38 -7 19 -29 71 -54 112 -54 42 0 110 38 124 70 12 26
14 27 36 13 45 -30 103 17 103 83 0 39 -29 85 -61 96 -16 5 -29 14 -29 18 0
14 18 21 25 10 3 -5 17 -10 30 -10 19 0 23 4 18 18 -15 42 -68 56 -96 24z
m-61 -97 c26 -26 49 -32 59 -15 10 15 52 12 59 -5 3 -10 -1 -15 -12 -15 -21
-1 -45 -18 -59 -44 -9 -17 -12 -16 -29 13 -13 22 -31 35 -59 42 -72 20 -68 18
-55 34 19 23 68 18 96 -10z m-378 -72 c-4 -22 -22 -20 -26 1 -2 10 3 16 13 16
10 0 15 -7 13 -17z m497 -12 c7 -12 -12 -24 -25 -16 -11 7 -4 25 10 25 5 0 11
-4 15 -9z m-135 -21 c0 -5 -7 -10 -15 -10 -8 0 -15 5 -15 10 0 6 7 10 15 10 8
0 15 -4 15 -10z m-130 -10 c0 -5 -7 -10 -15 -10 -8 0 -15 5 -15 10 0 6 7 10
15 10 8 0 15 -4 15 -10z"/>
<path d="M4284 395 c-11 -27 7 -35 82 -35 43 0 74 -4 74 -10 0 -10 -15 -14
-34 -11 -21 4 -56 -10 -56 -23 0 -9 17 -16 45 -21 59 -8 87 -44 64 -83 -21
-37 -36 -37 -55 0 -21 41 -31 48 -70 48 -63 0 -89 -80 -37 -118 l27 -19 -22
-12 c-29 -15 -30 -66 -3 -81 11 -5 68 -10 126 -10 96 0 106 2 103 18 -3 14
-16 18 -76 20 -51 2 -72 7 -72 16 0 7 -9 21 -20 31 -28 25 -8 37 47 29 39 -6
46 -3 73 26 36 38 41 94 11 131 -12 16 -16 31 -11 44 9 24 2 46 -18 63 -23 18
-171 16 -178 -3z m71 -185 c8 -13 -14 -42 -26 -34 -5 3 -9 14 -9 25 0 20 24
26 35 9z"/>
<path d="M5062 377 c-27 -28 -38 -32 -67 -29 -41 5 -46 -10 -11 -33 14 -10 33
-13 47 -10 32 9 112 82 104 95 -12 19 -41 10 -73 -23z"/>
<path d="M3264 369 c-31 -31 -32 -31 -58 -14 -34 23 -54 8 -36 -25 9 -16 9
-25 1 -33 -35 -35 9 -77 81 -77 56 0 68 -13 32 -37 -25 -16 -28 -16 -56 0 -36
20 -68 22 -68 4 0 -22 35 -47 72 -53 82 -14 157 78 97 119 -18 13 -19 16 -4
24 19 11 11 39 -16 54 -23 12 -16 29 12 29 12 0 19 7 19 20 0 31 -40 25 -76
-11z m25 -83 c13 -16 -4 -26 -45 -26 -23 0 -32 18 -17 33 11 12 50 8 62 -7z"/>
<path d="M4093 370 c-26 -30 -56 -39 -68 -20 -8 13 -45 13 -45 -1 0 -26 23
-49 56 -55 25 -5 32 -10 25 -17 -6 -6 -11 -24 -11 -39 0 -21 6 -29 25 -34 38
-9 12 -34 -35 -34 -44 0 -73 24 -40 33 17 4 21 12 18 38 -2 17 -10 36 -19 42
-24 15 -64 1 -79 -29 -13 -23 -12 -30 5 -62 36 -67 131 -80 206 -29 46 31 52
83 15 132 -32 42 -33 53 -1 61 16 4 25 13 25 25 0 31 -45 24 -77 -11z m17
-120 c0 -5 -4 -10 -10 -10 -5 0 -10 5 -10 10 0 6 5 10 10 10 6 0 10 -4 10 -10z
m-120 -10 c0 -5 -7 -10 -15 -10 -8 0 -15 5 -15 10 0 6 7 10 15 10 8 0 15 -4
15 -10z"/>
<path d="M5565 370 c-44 -35 -42 -34 -61 -15 -8 8 -21 12 -29 9 -18 -7 -20
-30 -4 -40 8 -4 8 -9 0 -17 -17 -17 -13 -52 7 -70 12 -11 36 -17 70 -17 53 0
66 -12 40 -38 -16 -16 -37 -15 -72 3 -35 19 -56 19 -56 2 0 -22 35 -47 72 -53
83 -14 156 78 96 120 -19 14 -19 16 -5 22 23 9 21 20 -8 46 -27 23 -25 38 6
38 12 0 19 7 19 20 0 29 -31 25 -75 -10z m24 -84 c13 -16 -4 -26 -43 -26 -28
0 -36 8 -29 26 7 18 57 18 72 0z"/>
<path d="M2662 365 c-31 -26 -57 -32 -67 -15 -3 6 -15 10 -27 10 -16 0 -19 -4
-14 -25 4 -15 0 -35 -12 -54 -17 -28 -19 -28 -45 -15 -29 16 -67 5 -67 -19 0
-7 -9 7 -19 30 -11 23 -29 46 -40 53 -21 11 -273 21 -298 12 -7 -2 -13 -15
-13 -28 0 -20 -30 -64 -43 -64 -2 0 -9 18 -16 40 -24 81 -106 93 -135 19 -9
-21 -20 -39 -25 -39 -19 0 -23 22 -7 39 20 22 21 51 1 51 -26 0 -63 -45 -71
-84 -10 -54 13 -107 56 -129 63 -33 151 -5 173 54 12 31 27 39 27 13 0 -26 55
-72 94 -80 51 -9 108 10 143 46 l28 30 16 -22 c21 -27 76 -29 95 -3 13 17 16
15 53 -26 22 -24 40 -53 41 -64 0 -25 -18 -45 -41 -45 -26 0 -35 21 -16 35 32
23 19 35 -38 35 -40 0 -55 -4 -55 -14 0 -8 7 -16 15 -20 8 -3 15 -14 15 -24 0
-53 92 -71 135 -27 38 38 34 89 -10 129 -33 30 -47 66 -26 66 28 0 61 -21 61
-39 0 -21 44 -61 66 -61 8 0 14 -11 14 -25 0 -18 5 -25 20 -25 26 0 28 47 3
53 -10 2 5 4 32 5 28 1 59 2 70 2 11 1 33 -2 48 -6 35 -8 74 11 91 45 l13 25
18 -37 c13 -27 23 -37 41 -37 24 0 32 14 14 25 -5 3 -10 22 -10 41 0 47 25 45
37 -3 18 -76 100 -84 135 -13 35 69 16 155 -42 185 -43 22 -125 20 -150 -5
-25 -25 -25 -45 -1 -62 18 -13 18 -15 -10 -46 -26 -28 -29 -30 -29 -12 0 18
-26 80 -33 80 -1 0 -17 4 -35 9 -30 9 -32 8 -32 -15 0 -17 6 -24 19 -24 28 0
45 -49 30 -83 -13 -29 -40 -35 -56 -14 -5 6 -15 31 -21 54 -7 23 -24 51 -37
61 -30 24 -32 42 -5 42 13 0 20 7 20 20 0 29 -41 26 -78 -5z m315 -41 c-3 -3
-12 -4 -19 -1 -8 3 -5 6 6 6 11 1 17 -2 13 -5z m102 -23 c26 -36 27 -72 3
-101 -22 -28 -37 -21 -45 20 -4 19 -18 37 -39 50 -19 11 -26 20 -17 20 9 0 24
9 34 20 25 27 40 25 64 -9z m-1114 -32 c7 -22 -18 -74 -40 -83 -27 -10 -80 -7
-93 6 -26 26 -13 38 38 38 54 0 73 17 50 45 -7 8 -9 22 -6 31 6 15 8 15 26 -1
11 -10 22 -26 25 -36z m712 25 c29 -8 47 -53 34 -87 -12 -32 -31 -35 -38 -8
-9 33 -53 38 -53 6 0 -14 -24 -27 -34 -18 -14 14 -5 68 16 90 22 24 37 27 75
17z m-520 -33 c-13 -34 3 -61 35 -61 17 0 18 -3 8 -15 -15 -18 -83 -20 -98 -2
-8 10 -6 16 9 25 21 14 25 52 7 70 -9 9 -5 12 19 12 30 0 31 -1 20 -29z m156
5 c-25 -22 -29 -22 -40 -7 -20 26 -15 31 28 31 l40 0 -28 -24z m-93 -16 c0 -5
-7 -10 -15 -10 -8 0 -15 5 -15 10 0 6 7 10 15 10 8 0 15 -4 15 -10z m-130 -10
c0 -5 -7 -10 -15 -10 -8 0 -15 5 -15 10 0 6 7 10 15 10 8 0 15 -4 15 -10z
m280 -9 c0 -14 -18 -23 -30 -16 -6 4 -8 11 -5 16 8 12 35 12 35 0z"/>
<path d="M3580 365 c-24 -26 -54 -33 -65 -15 -3 6 -15 10 -27 10 -16 0 -19 -4
-14 -24 4 -16 -1 -37 -15 -61 -15 -26 -19 -44 -15 -68 12 -58 27 -69 107 -72
68 -3 74 -1 101 25 40 41 40 100 -2 142 -35 35 -38 48 -9 48 30 0 20 34 -11
38 -17 2 -34 -6 -50 -23z m28 -81 c16 -11 22 -25 22 -54 0 -51 -17 -59 -46
-24 l-23 29 -23 -29 c-21 -25 -25 -26 -37 -12 -17 21 -5 72 22 91 28 19 57 19
85 -1z"/>
<path d="M4654 365 c-28 -26 -49 -32 -59 -15 -3 6 -15 10 -26 10 -16 0 -20 -6
-18 -27 2 -16 -5 -44 -15 -64 -21 -42 -17 -72 15 -113 18 -24 27 -27 55 -22
44 9 87 -2 80 -20 -3 -8 3 -20 14 -26 11 -7 20 -20 20 -30 0 -53 89 -66 133
-20 15 15 27 39 27 53 0 27 -24 66 -52 87 -10 7 -18 22 -18 33 0 15 5 18 24
13 32 -8 41 11 16 36 -25 25 -35 25 -61 -1 -17 -17 -23 -19 -30 -8 -5 8 -9 19
-9 26 0 6 -11 20 -25 31 -28 22 -33 42 -10 42 8 0 15 9 15 20 0 29 -42 26 -76
-5z m22 -71 c34 -9 49 -47 34 -83 -15 -38 -23 -38 -44 -6 -9 14 -21 25 -26 25
-6 0 -15 -11 -20 -25 -11 -28 -20 -31 -38 -13 -19 19 -14 53 13 82 24 26 42
31 81 20z m164 -196 c0 -24 -23 -48 -45 -48 -28 0 -33 21 -10 40 22 18 9 30
-34 30 -49 0 -56 8 -26 32 14 11 25 27 25 35 0 10 17 -2 45 -31 25 -27 45 -52
45 -58z"/>
<path d="M5263 360 c-26 -11 -41 -37 -41 -70 1 -14 -3 -39 -7 -56 -6 -26 -2
-37 23 -65 26 -29 35 -33 80 -33 60 0 94 25 112 81 33 98 -67 183 -167 143z
m37 -55 c0 -8 -4 -15 -10 -15 -5 0 -10 7 -10 15 0 8 5 15 10 15 6 0 10 -7 10
-15z m90 -57 c0 -56 -76 -91 -114 -52 -26 25 -16 47 25 57 15 4 34 19 44 34
17 25 18 26 31 8 8 -10 14 -31 14 -47z"/>
<path d="M5659 334 c-7 -8 -7 -19 -1 -31 5 -10 10 -40 10 -66 1 -85 70 -128
146 -92 20 10 36 20 36 24 0 4 6 15 13 25 13 18 15 17 40 -8 32 -31 46 -32 81
-5 19 15 26 30 26 55 0 45 -24 91 -52 100 -42 14 -287 12 -299 -2z m153 -61
c33 -30 17 -78 -34 -96 -22 -8 -68 29 -68 55 0 50 64 76 102 41z m101 0 c-13
-8 -23 -23 -23 -32 0 -9 -6 -4 -15 13 -20 37 -21 36 23 35 36 0 37 0 15 -16z
m47 -49 c0 -16 -16 -19 -25 -4 -8 13 4 32 16 25 5 -4 9 -13 9 -21z"/>
<path d="M3754 326 c-110 -49 -65 -212 54 -193 54 9 92 51 92 103 0 79 -72
123 -146 90z m88 -53 c22 -20 23 -51 1 -75 -32 -36 -103 -12 -103 35 0 49 64
75 102 40z"/>
<path d="M5106 332 c-14 -13 -4 -40 19 -50 45 -21 26 -116 -20 -98 -8 3 -15
14 -15 24 0 46 -80 70 -113 34 -21 -23 -22 -76 -1 -93 9 -7 46 -14 90 -15 94
-3 123 17 131 87 4 38 1 50 -21 76 -25 30 -59 47 -70 35z m-66 -131 c0 -11 -4
-22 -9 -25 -12 -8 -34 21 -26 34 11 17 35 11 35 -9z"/>
<path d="M6680 186 c-27 -33 18 -72 48 -42 13 13 14 20 6 34 -15 23 -38 26
-54 8z"/>
<path d="M6770 185 c-15 -18 -7 -43 16 -52 24 -9 46 24 33 48 -12 23 -32 24
-49 4z"/>
</g>
</svg>
